<svg id="bd9f6789-6684-4a20-b875-8579016c5bf2" data-name="Calque 1" xmlns="http://www.w3.org/2000/svg" viewBox="0 0 159.23 183.2"><polygon points="0.22 45.47 0.22 137.29 79.74 183.2 159.26 137.29 159.26 45.47 79.74 -0.45 0.22 45.47" style="fill:#da0764"/><polygon points="159.26 137.29 79.74 183.2 0.22 137.29 79.74 91.38 159.26 137.29" style="fill:#f5f5f5"/><path d="M133.2,66.11,99.08,42.88l0-.11-.11,0-1.9-1.3H64.44l-2,1.28h0v0L26.27,66.11H57.52l-13.4,63.66,4.67,1L62.4,66.11H99.09l13.61,64.64,4.67-1L104,66.11Zm-15.5-4.78H103l-2.46-11.7Zm-75.21,0L61,49.37l-2.52,12Zm20.92,0,3.16-15.06H94.91l3.17,15.06Z" style="fill:#202121"/><circle cx="45.76" cy="130.26" r="7.02" style="fill:#f5f5f5"/><path d="M45.76,128a2.25,2.25,0,1,1-2.25,2.25A2.25,2.25,0,0,1,45.76,128m0-4.77a7,7,0,1,0,7,7,7,7,0,0,0-7-7Z" style="fill:#202121"/><circle cx="115.73" cy="130.26" r="7.02" style="fill:#f5f5f5"/><path d="M115.73,128a2.25,2.25,0,1,1-2.25,2.25,2.25,2.25,0,0,1,2.25-2.25m0-4.77a7,7,0,1,0,7,7,7,7,0,0,0-7-7Z" style="fill:#202121"/><circle cx="127.18" cy="63.38" r="7.02" style="fill:#da0764"/><path d="M127.18,61.13a2.25,2.25,0,1,1-2.25,2.25,2.25,2.25,0,0,1,2.25-2.25m0-4.78a7,7,0,1,0,7,7,7,7,0,0,0-7-7Z" style="fill:#202121"/><circle cx="32.47" cy="63.38" r="7.02" style="fill:#da0764"/><path d="M32.47,61.13a2.25,2.25,0,1,1-2.25,2.25,2.25,2.25,0,0,1,2.25-2.25m0-4.78a7,7,0,1,0,7,7,7,7,0,0,0-7-7Z" style="fill:#202121"/></svg>