<svg id="f1029861-464a-4f82-b156-11c6a1663cee" data-name="Calque 1" xmlns="http://www.w3.org/2000/svg" viewBox="0 0 159.23 183.2"><polygon points="0.58 46.1 0.58 137.5 79.74 183.2 158.89 137.5 158.89 46.1 79.74 0.4 0.58 46.1" style="fill:#da0764"/><polygon points="158.89 137.5 79.74 183.2 0.58 137.5 79.74 91.8 158.89 137.5" style="fill:#202121"/><path d="M133,66.64,99,43.53l0-.11-.11,0L97,42.15H64.51l-2,1.28h0v0l-36,23.19h31.1L44.28,130l4.65,1L62.48,66.64H99L112.55,131l4.65-1L103.86,66.64Zm-15.44-4.75H102.86l-2.45-11.65Zm-74.86,0L61.13,50l-2.51,11.9Zm20.82,0,3.16-15h28.2l3.16,15Z" style="fill:#f5f5f5"/><circle cx="45.91" cy="130.51" r="6.99" style="fill:#202121"/><path d="M45.91,128.27a2.24,2.24,0,1,1-2.24,2.24,2.24,2.24,0,0,1,2.24-2.24m0-4.75a7,7,0,1,0,7,7,7,7,0,0,0-7-7Z" style="fill:#f5f5f5"/><circle cx="115.57" cy="130.51" r="6.99" style="fill:#202121"/><path d="M115.57,128.27a2.24,2.24,0,1,1-2.24,2.24,2.24,2.24,0,0,1,2.24-2.24m0-4.75a7,7,0,1,0,7,7,7,7,0,0,0-7-7Z" style="fill:#f5f5f5"/><circle cx="126.96" cy="63.93" r="6.99" style="fill:#da0764"/><path d="M127,61.69a2.24,2.24,0,1,1-2.24,2.24A2.24,2.24,0,0,1,127,61.69m0-4.75a7,7,0,1,0,7,7,7,7,0,0,0-7-7Z" style="fill:#f5f5f5"/><circle cx="32.69" cy="63.93" r="6.99" style="fill:#da0764"/><path d="M32.69,61.69a2.24,2.24,0,1,1-2.24,2.24,2.24,2.24,0,0,1,2.24-2.24m0-4.75a7,7,0,1,0,7,7,7,7,0,0,0-7-7Z" style="fill:#f5f5f5"/></svg>